<?xml version="1.0" encoding="utf-8"?>
<!-- Svg Vector Icons : http://www.sfont.cn -->
<!DOCTYPE svg PUBLIC "-//W3C//DTD SVG 1.1//EN" "http://www.w3.org/Graphics/SVG/1.1/DTD/svg11.dtd">
<svg version="1.1" xmlns="http://www.w3.org/2000/svg" xmlns:xlink="http://www.w3.org/1999/xlink" x="0px" y="0px" viewBox="0 0 1000 1000" enable-background="new 0 0 1000 1000" xml:space="preserve">
<metadata> Svg Vector Icons : http://www.sfont.cn </metadata>
<g><path d="M572.9,652.7c0,0-72.9,58.3-99.4,73.6c-23.3,13.4-45.2,22.3-64.6,28.5c-19.5,6.2-36.6,10.1-51.3,11.7c-14.7,1.6-26.8,2.6-36.5,3.1c-0.9,0.4-2.1,0.7-3.4,0.7h-11c-25.2,0-48.9-3-71.2-9c-22.3-6-41.6-14.8-58.1-26.5c-16.5-11.7-29.6-26.4-39.2-44c-9.6-17.7-14.4-38.2-14.4-61.6c0.5-20.2,6-38.5,16.5-55c10.6-16.5,24.2-30.5,40.9-42c16.7-11.5,35.3-20.2,55.7-26.1c20.4-6,40.9-8.5,61.6-7.6c20.2,0.9,39.7,3.3,58.5,7.2c18.8,3.9,36.8,8.6,54,14.1c17.2,5.5,33.5,11.5,48.8,17.9c15.4,6.4,29.9,12.6,43.7,18.6c5.5,2.3,11.2,4.6,17.2,6.9c6,2.3,12.1,4.6,18.6,6.9c13.3-17,24.5-33.6,33.7-49.9c9.2-16.3,16.7-31.2,22.7-44.7c6-13.5,10.6-24.9,13.8-34.1c3.2-9.2,5.3-15.6,6.2-19.3H317v-33h141v-76.3H262v-33H458V218c0-4.1,2.3-7.4,6.9-10c4.6-2.5,9.9-4.2,15.8-5.2c6.9-1.4,14.7-2.1,23.4-2.1h53v79.1h201.5v33H557.1v76.3h160.2c0-0.2,0.1-0.5,0.1-0.7v0.7h-0.1c-3.2,20.4-8.7,42-16.4,64.7c-6.4,19.7-15.9,42.2-28.5,67.4c-12.6,25.2-29.2,51.1-49.9,77.7c0,0,157.9,75.5,324.5,102.1C974.6,639.8,990,571.7,990,500c0-270.6-219.4-490-490-490C229.4,10,10,229.4,10,500c0,270.6,219.4,490,490,490c167.9,0,316-84.4,404.3-213.1C814.6,757.3,719.3,717.7,572.9,652.7L572.9,652.7z M187.7,630.7c-1.8,84.1,93.3,90.3,108,90.8c48.5,1.5,87.6-16.8,118.1-34.9c30.5-18.1,80.2-64.9,82.1-66.5c1.8-1.6,3.7-3.3,5.5-5.2c-13.3-7.3-26.4-14.1-39.2-20.3c-12.8-6.2-78.1-41.2-136-47.2C216.6,536,188.2,605.1,187.7,630.7L187.7,630.7z"/></g>
</svg>