<?xml version="1.0" encoding="utf-8"?>
<!-- Svg Vector Icons : http://www.sfont.cn -->
<!DOCTYPE svg PUBLIC "-//W3C//DTD SVG 1.1//EN" "http://www.w3.org/Graphics/SVG/1.1/DTD/svg11.dtd">
<svg version="1.1" xmlns="http://www.w3.org/2000/svg" xmlns:xlink="http://www.w3.org/1999/xlink" x="0px" y="0px" viewBox="0 0 1000 1000" enable-background="new 0 0 1000 1000" xml:space="preserve">
<metadata> Svg Vector Icons : http://www.sfont.cn </metadata>
<g><path d="M735.1,303.7H264.6c-23.4,0-42.5,19-42.5,42.4v67.3h555.4v-67.3C777.6,322.7,758.5,303.7,735.1,303.7z"/><path d="M500,10C229.4,10,10,229.4,10,500c0,270.6,219.4,490,490,490c270.6,0,490-219.4,490-490C990,229.4,770.6,10,500,10z M810.2,654.7c0,41.4-33.7,75.1-75.1,75.1H487c-9,0-16.3-7.3-16.3-16.3c0-9,7.3-16.3,16.3-16.3h248.2c23.4,0,42.4-19,42.4-42.5V446.1H222.2v208.6c0,23.4,19,42.5,42.5,42.5h80.8l63.2-88.6c5.3-7.3,15.4-9,22.8-3.8c7.4,5.2,9.1,15.4,3.8,22.8l-73,102.3l-97.7,0c-41.4,0-75.1-33.7-75.1-75.1V346.1c0-41.4,33.7-75.1,75.1-75.1h470.4c41.4,0,75.1,33.7,75.1,75.1L810.2,654.7L810.2,654.7z M535,637.5c0-9,7.3-16.3,16.3-16.3h18.4c9,0,16.3,7.3,16.3,16.3c0,9-7.3,16.3-16.3,16.3h-18.4C542.3,653.8,535,646.5,535,637.5z M616.6,637.5c0-9,7.3-16.3,16.3-16.3H693c4.7,0,8.5-3.8,8.5-8.5v-58.2c0-9,7.3-16.3,16.3-16.3c9,0,16.3,7.3,16.3,16.3v58.2c0,22.7-18.5,41.2-41.1,41.2h-60.1C623.8,653.8,616.6,646.5,616.6,637.5z"/></g>
</svg>