<?xml version="1.0" encoding="utf-8"?>
<!-- Svg Vector Icons : http://www.sfont.cn -->
<!DOCTYPE svg PUBLIC "-//W3C//DTD SVG 1.1//EN" "http://www.w3.org/Graphics/SVG/1.1/DTD/svg11.dtd">
<svg version="1.1" xmlns="http://www.w3.org/2000/svg" xmlns:xlink="http://www.w3.org/1999/xlink" x="0px" y="0px" viewBox="0 0 1000 1000" enable-background="new 0 0 1000 1000" xml:space="preserve">
<metadata> Svg Vector Icons : http://www.sfont.cn </metadata>
<g><path d="M564.7,499.6c-11.2,0-22.4,10.4-22.4,23.2c0,10.4,11.2,20.7,22.4,20.7c16.8,0,28.7-10.4,28.7-20.7C593.4,510,581.4,499.6,564.7,499.6L564.7,499.6L564.7,499.6L564.7,499.6z M491.2,391.8c17.6,0,28.7-11.2,28.7-27.9c0-17.6-11.2-27.9-28.7-27.9c-16.8,0-32.7,10.4-32.7,27.9C458.5,380.7,474.5,391.8,491.2,391.8L491.2,391.8L491.2,391.8L491.2,391.8z M500,10C229.4,10,10,229.4,10,500c0,270.6,219.4,490,490,490c270.6,0,490-219.4,490-490C990,229.4,770.6,10,500,10L500,10L500,10L500,10z M407.4,624.1c-29.5,0-51.1-4.8-79-12.8l-80.6,40.7l23.2-68.7c-56.7-39.9-90.2-90.2-90.2-151.7c0-108.6,102.2-191.6,226.7-191.6c110.2,0,208.4,65.5,227.5,158.1c-8-1.6-15.2-2.4-21.6-2.4c-108.6,0-192.4,81.4-192.4,179.6c0,16.8,2.4,31.9,6.4,47.9C421,624.1,413.8,624.1,407.4,624.1L407.4,624.1L407.4,624.1L407.4,624.1z M740.3,702.4l16,57.5l-60.7-34.3c-23.1,4.8-45.5,12-68.7,12c-107,0-191.6-73.4-191.6-164.5c0-91,84.6-164.5,191.6-164.5c101.4,0,192.4,73.4,192.4,164.5C819.3,624.1,785,669.6,740.3,702.4L740.3,702.4L740.3,702.4L740.3,702.4z M333.1,335.9c-16.8,0-34.3,10.4-34.3,27.9c0,16.8,17.6,27.9,34.3,27.9c16,0,28.7-11.2,28.7-27.9C361.9,346.3,349.1,335.9,333.1,335.9L333.1,335.9L333.1,335.9L333.1,335.9z M690,499.6c-12,0-22.3,10.4-22.3,23.2c0,10.4,10.4,20.7,22.3,20.7c16,0,27.9-10.4,27.9-20.7C718,510,706,499.6,690,499.6L690,499.6L690,499.6L690,499.6z"/></g>
</svg>